<?xml version="1.0" encoding="UTF-8"?>
<svg xmlns="http://www.w3.org/2000/svg" xmlns:xlink="http://www.w3.org/1999/xlink" width="185px" height="50px" viewBox="0 0 184 50" version="1.1">
<g id="surface1">
<path style=" stroke:none;fill-rule:nonzero;fill:rgb(3.529412%,7.843137%,100%);fill-opacity:1;" d="M 25.300781 46.71875 C 22.53125 47.203125 19.714844 47.351562 16.800781 47.738281 L 7.914062 21.640625 L 7.914062 48.859375 C 5.148438 49.152344 2.621094 49.542969 0 49.929688 L 0 0.0703125 L 7.382812 0.0703125 L 17.480469 28.359375 L 17.480469 0.0703125 L 25.300781 0.0703125 Z M 40.597656 18.328125 C 43.609375 18.328125 48.222656 18.183594 50.988281 18.183594 L 50.988281 25.972656 C 47.542969 25.972656 43.511719 25.972656 40.597656 26.121094 L 40.597656 37.710938 C 45.164062 37.417969 49.726562 37.027344 54.339844 36.882812 L 54.339844 44.378906 L 32.828125 46.085938 L 32.828125 0.0703125 L 54.339844 0.0703125 L 54.339844 7.859375 L 40.597656 7.859375 Z M 83.234375 7.859375 L 75.171875 7.859375 L 75.171875 43.699219 C 72.550781 43.699219 69.929688 43.699219 67.402344 43.796875 L 67.402344 7.859375 L 59.34375 7.859375 L 59.34375 0.0703125 L 83.234375 0.0703125 Z M 95.859375 17.792969 L 106.496094 17.792969 L 106.496094 25.585938 L 95.859375 25.585938 L 95.859375 43.261719 L 88.234375 43.261719 L 88.234375 0.0703125 L 109.945312 0.0703125 L 109.945312 7.859375 L 95.859375 7.859375 Z M 122.570312 36.441406 C 126.988281 36.539062 131.457031 36.882812 135.777344 37.125 L 135.777344 44.820312 C 128.832031 44.378906 121.890625 43.941406 114.800781 43.796875 L 114.800781 0.0703125 L 122.570312 0.0703125 Z M 142.332031 45.355469 C 144.808594 45.5 147.433594 45.648438 149.957031 45.9375 L 149.957031 0.0703125 L 142.332031 0.0703125 Z M 184 0.0703125 L 174.140625 23.78125 L 184 49.929688 C 181.085938 49.542969 178.171875 49.007812 175.257812 48.519531 L 169.675781 34.105469 L 163.992188 47.351562 C 161.175781 46.863281 158.457031 46.71875 155.640625 46.328125 L 165.644531 23.492188 L 156.609375 0.0703125 L 164.964844 0.0703125 L 170.0625 13.167969 L 175.5 0.0703125 Z M 184 0.0703125 "/>
</g>
</svg>
